<svg width="28" height="28" viewBox="0 0 28 28" fill="none" xmlns="http://www.w3.org/2000/svg">
<path d="M14.0001 0.666693C6.63619 0.666693 0.666748 6.63614 0.666748 14C0.666748 21.3639 6.63619 27.3334 14.0001 27.3334C21.364 27.3334 27.3334 21.3639 27.3334 14C27.3334 6.63614 21.364 0.666693 14.0001 0.666693ZM19.4237 11.5889C19.4292 11.7028 19.4306 11.8167 19.4306 11.9278C19.4306 15.4 16.7904 19.4014 11.9598 19.4014C10.5324 19.4038 9.13476 18.9938 7.9348 18.2209C8.13897 18.2459 8.34869 18.2556 8.56119 18.2556C9.79175 18.2556 10.9237 17.8375 11.8223 17.132C11.2747 17.1212 10.7441 16.9399 10.3044 16.6132C9.86474 16.2866 9.53793 15.8309 9.36952 15.3097C9.7628 15.3845 10.1679 15.3689 10.5542 15.2639C9.95987 15.1437 9.42536 14.8217 9.04134 14.3523C8.65733 13.883 8.44745 13.2953 8.4473 12.6889V12.657C8.80147 12.8528 9.20703 12.9722 9.63758 12.9861C9.08036 12.6152 8.68589 12.0454 8.53487 11.3933C8.38384 10.7411 8.48765 10.0559 8.82508 9.4778C9.48474 10.2889 10.3074 10.9525 11.2398 11.4255C12.1721 11.8985 13.1934 12.1704 14.2376 12.2236C14.1048 11.6602 14.162 11.0686 14.4001 10.541C14.6382 10.0134 15.044 9.57918 15.5543 9.30595C16.0647 9.03272 16.651 8.93575 17.2222 9.03013C17.7933 9.1245 18.3173 9.40492 18.7126 9.8278C19.3003 9.71152 19.8639 9.49593 20.3792 9.1903C20.1834 9.79882 19.7732 10.3155 19.2251 10.6445C19.7457 10.5818 20.2541 10.4418 20.7334 10.2292C20.3813 10.7568 19.9378 11.2173 19.4237 11.5889Z" fill="#F5F5F5"/>
</svg>
